<svg xmlns="http://www.w3.org/2000/svg" version="1.1" xmlns:xlink="http://www.w3.org/1999/xlink" xmlns:svgjs="http://svgjs.dev/svgjs" width="1000" height="1000" viewBox="0 0 1000 1000"><rect width="1000" height="1000" fill="#000000"></rect><g transform="matrix(0.7,0,0,0.7,149.57575757575756,282.1265587044535)"><svg viewBox="0 0 396 247" data-background-color="#ffffff" preserveAspectRatio="xMidYMid meet" height="623" width="1000" xmlns="http://www.w3.org/2000/svg" xmlns:xlink="http://www.w3.org/1999/xlink"><defs></defs><g id="tight-bounds" transform="matrix(1,0,0,1,0.2400000000000091,-0.09999999999999432)"><svg viewBox="0 0 395.52 247.2" height="247.2" width="395.52"><g><svg></svg></g><g><svg viewBox="0 0 395.52 247.2" height="247.2" width="395.52"><g><path d="M69.789 224.138c-15.782 0-29.242-3.026-40.382-9.079-11.14-6.016-20.609-14.315-28.407-24.898l17.267-14.482c6.87 9.098 14.482 16.004 22.837 20.721 8.355 4.753 18.195 7.13 29.521 7.129 13.925 0 24.564-3.342 31.916-10.026 7.315-6.684 10.973-15.596 10.973-26.736 0-5.536-0.99-10.312-2.971-14.329l24.732 0c0.903 4.101 1.355 8.506 1.354 13.215 0 8.912-1.522 16.988-4.567 24.23-3.082 7.241-7.501 13.368-13.257 18.381-5.756 5.013-12.755 8.912-20.999 11.697-8.281 2.785-17.62 4.177-28.017 4.177zM6.848 76.255c0-8.541 1.578-16.153 4.735-22.837 3.156-6.684 7.575-12.254 13.257-16.71 5.644-4.456 12.421-7.854 20.33-10.193 7.872-2.302 16.543-3.453 26.012-3.453 14.668 0 27.256 2.692 37.764 8.076 10.472 5.384 19.328 13.275 26.569 23.673l-17.545 12.811c-5.384-7.427-11.883-13.275-19.495-17.546-7.612-4.27-17.081-6.405-28.407-6.405-12.44 0-22.243 2.636-29.41 7.909-7.13 5.31-10.694 13.257-10.694 23.84 0 8.252 2.391 14.7 7.174 19.342l-27.34 0c-1.966-5.458-2.949-11.627-2.95-18.507zM230.762 220.796h-25.9l-16.649-68.358 22.191 0 8.94 40.23h0.557l10.019-40.23 19.11 0zM157.517 26.404h24.786l15.259 68.358-23.396 0zM262.511 26.404h26.736l17.293 68.358-20.394 0-10.545-42.179h-0.557l-10.875 42.179-19.561 0zM331.022 192.389h0.836l9.219-39.951 21.122 0-17.53 68.358h-25.901l-17.875-68.358 20.141 0zM370.569 26.404h23.951l-17.53 68.358-22.493 0z" fill="#2257bf" data-fill-palette-color="tertiary"></path></g><g transform="matrix(1,0,0,1,0,101.2770459321525)"><svg viewBox="0 0 395.52 44.64590813569498" height="44.64590813569498" width="395.52"><g><svg viewBox="0 0 395.52 44.64590813569498" height="44.64590813569498" width="395.52"><g><svg viewBox="0 0 395.52000000000004 44.64590813569499" height="44.64590813569498" width="395.52"><g><svg viewBox="0 0 395.52000000000004 44.64590813569499" height="44.64590813569499" width="395.52000000000004"><g><svg viewBox="0 0 395.52000000000004 44.64590813569499" height="44.64590813569499" width="395.52000000000004"><g><svg viewBox="0 0 395.52000000000004 44.64590813569499" height="44.64590813569499" width="395.52000000000004"><g transform="matrix(1,0,0,1,0,0)"><svg width="395.52000000000004" viewBox="2.0999999046325684 -37 333.07000732421875 37.599998474121094" height="44.64590813569499" data-palette-color="#2257bf"><path d="M14.45 0.6L14.45 0.6Q10.2 0.6 7.2-1.03 4.2-2.65 2.1-5.5L2.1-5.5 5.2-8.1Q7.05-5.65 9.3-4.38 11.55-3.1 14.6-3.1L14.6-3.1Q18.35-3.1 20.33-4.9 22.3-6.7 22.3-9.7L22.3-9.7Q22.3-12.2 20.8-13.55 19.3-14.9 15.85-15.7L15.85-15.7 13-16.35Q8.2-17.45 5.68-19.68 3.15-21.9 3.15-25.95L3.15-25.95Q3.15-28.25 4-30.05 4.85-31.85 6.38-33.05 7.9-34.25 10.03-34.88 12.15-35.5 14.7-35.5L14.7-35.5Q18.65-35.5 21.48-34.05 24.3-32.6 26.25-29.8L26.25-29.8 23.1-27.5Q21.65-29.5 19.6-30.65 17.55-31.8 14.5-31.8L14.5-31.8Q11.15-31.8 9.22-30.38 7.3-28.95 7.3-26.1L7.3-26.1Q7.3-23.6 8.93-22.33 10.55-21.05 13.85-20.3L13.85-20.3 16.7-19.65Q21.85-18.5 24.15-16.15 26.45-13.8 26.45-9.9L26.45-9.9Q26.45-7.5 25.63-5.55 24.8-3.6 23.25-2.25 21.7-0.9 19.48-0.15 17.25 0.6 14.45 0.6ZM42.9 0.6L42.9 0.6Q40.2 0.6 38.05-0.35 35.9-1.3 34.42-3.05 32.95-4.8 32.17-7.3 31.4-9.8 31.4-12.9L31.4-12.9Q31.4-16 32.17-18.5 32.95-21 34.42-22.75 35.9-24.5 38.05-25.45 40.2-26.4 42.9-26.4L42.9-26.4Q46.75-26.4 49.07-24.73 51.4-23.05 52.55-20.35L52.55-20.35 49.2-18.65Q48.5-20.65 46.9-21.75 45.3-22.85 42.9-22.85L42.9-22.85Q41.1-22.85 39.75-22.28 38.4-21.7 37.5-20.68 36.6-19.65 36.15-18.23 35.7-16.8 35.7-15.1L35.7-15.1 35.7-10.7Q35.7-7.3 37.52-5.13 39.35-2.95 42.9-2.95L42.9-2.95Q47.75-2.95 49.9-7.45L49.9-7.45 52.8-5.5Q51.55-2.7 49.07-1.05 46.6 0.6 42.9 0.6ZM67.9 0.6L67.9 0.6Q65.3 0.6 63.15-0.35 61-1.3 59.47-3.08 57.95-4.85 57.1-7.33 56.25-9.8 56.25-12.9L56.25-12.9Q56.25-15.95 57.1-18.45 57.95-20.95 59.47-22.73 61-24.5 63.15-25.45 65.3-26.4 67.9-26.4L67.9-26.4Q70.5-26.4 72.62-25.45 74.75-24.5 76.3-22.73 77.85-20.95 78.7-18.45 79.55-15.95 79.55-12.9L79.55-12.9Q79.55-9.8 78.7-7.33 77.85-4.85 76.3-3.08 74.75-1.3 72.62-0.35 70.5 0.6 67.9 0.6ZM67.9-2.95L67.9-2.95Q71.15-2.95 73.2-4.95 75.25-6.95 75.25-11.05L75.25-11.05 75.25-14.75Q75.25-18.85 73.2-20.85 71.15-22.85 67.9-22.85L67.9-22.85Q64.65-22.85 62.6-20.85 60.55-18.85 60.55-14.75L60.55-14.75 60.55-11.05Q60.55-6.95 62.6-4.95 64.65-2.95 67.9-2.95ZM96.84 0L91.84 0Q89.74 0 88.67-1.18 87.59-2.35 87.59-4.25L87.59-4.25 87.59-22.3 83.34-22.3 83.34-25.8 85.74-25.8Q87.04-25.8 87.52-26.33 87.99-26.85 87.99-28.15L87.99-28.15 87.99-32.95 91.59-32.95 91.59-25.8 97.24-25.8 97.24-22.3 91.59-22.3 91.59-3.5 96.84-3.5 96.84 0ZM113.94 0L108.94 0Q106.84 0 105.77-1.18 104.69-2.35 104.69-4.25L104.69-4.25 104.69-22.3 100.44-22.3 100.44-25.8 102.84-25.8Q104.14-25.8 104.62-26.33 105.09-26.85 105.09-28.15L105.09-28.15 105.09-32.95 108.69-32.95 108.69-25.8 114.34-25.8 114.34-22.3 108.69-22.3 108.69-3.5 113.94-3.5 113.94 0ZM142.49 0L137.84 0 129.34-34.9 133.78-34.9 137.53-18.1 140.44-5.05 140.53-5.05 143.78-18.1 148.19-34.9 152.99-34.9 157.24-18.1 160.49-5.1 160.64-5.1 163.64-18.1 167.59-34.9 171.89-34.9 162.94 0 158.29 0 153.74-17.4 150.54-30.2 150.44-30.2 147.14-17.4 142.49 0ZM197.63 0L195.38 0Q193.13 0 192.16-1.2 191.18-2.4 190.93-4.2L190.93-4.2 190.68-4.2Q189.83-1.8 187.88-0.6 185.93 0.6 183.23 0.6L183.23 0.6Q179.13 0.6 176.86-1.5 174.58-3.6 174.58-7.2L174.58-7.2Q174.58-10.85 177.26-12.8 179.93-14.75 185.58-14.75L185.58-14.75 190.68-14.75 190.68-17.3Q190.68-20.05 189.18-21.5 187.68-22.95 184.58-22.95L184.58-22.95Q182.23-22.95 180.66-21.9 179.08-20.85 178.03-19.1L178.03-19.1 175.63-21.35Q176.68-23.45 178.98-24.93 181.28-26.4 184.78-26.4L184.78-26.4Q189.48-26.4 192.08-24.1 194.68-21.8 194.68-17.7L194.68-17.7 194.68-3.5 197.63-3.5 197.63 0ZM183.88-2.8L183.88-2.8Q185.38-2.8 186.63-3.15 187.88-3.5 188.78-4.15 189.68-4.8 190.18-5.65 190.68-6.5 190.68-7.5L190.68-7.5 190.68-11.75 185.38-11.75Q181.93-11.75 180.36-10.75 178.78-9.75 178.78-7.85L178.78-7.85 178.78-6.8Q178.78-4.9 180.16-3.85 181.53-2.8 183.88-2.8ZM214.03 0L209.03 0Q206.93 0 205.86-1.18 204.78-2.35 204.78-4.25L204.78-4.25 204.78-22.3 200.53-22.3 200.53-25.8 202.93-25.8Q204.23-25.8 204.71-26.33 205.18-26.85 205.18-28.15L205.18-28.15 205.18-32.95 208.78-32.95 208.78-25.8 214.43-25.8 214.43-22.3 208.78-22.3 208.78-3.5 214.03-3.5 214.03 0ZM241.88 0L239.63 0Q237.38 0 236.4-1.2 235.43-2.4 235.18-4.2L235.18-4.2 234.93-4.2Q234.08-1.8 232.13-0.6 230.18 0.6 227.48 0.6L227.48 0.6Q223.38 0.6 221.1-1.5 218.83-3.6 218.83-7.2L218.83-7.2Q218.83-10.85 221.5-12.8 224.18-14.75 229.83-14.75L229.83-14.75 234.93-14.75 234.93-17.3Q234.93-20.05 233.43-21.5 231.93-22.95 228.83-22.95L228.83-22.95Q226.48-22.95 224.9-21.9 223.33-20.85 222.28-19.1L222.28-19.1 219.88-21.35Q220.93-23.45 223.23-24.93 225.53-26.4 229.03-26.4L229.03-26.4Q233.73-26.4 236.33-24.1 238.93-21.8 238.93-17.7L238.93-17.7 238.93-3.5 241.88-3.5 241.88 0ZM228.13-2.8L228.13-2.8Q229.63-2.8 230.88-3.15 232.13-3.5 233.03-4.15 233.93-4.8 234.43-5.65 234.93-6.5 234.93-7.5L234.93-7.5 234.93-11.75 229.63-11.75Q226.18-11.75 224.6-10.75 223.03-9.75 223.03-7.85L223.03-7.85 223.03-6.8Q223.03-4.9 224.4-3.85 225.78-2.8 228.13-2.8ZM251.58 0L247.58 0 247.58-25.8 251.58-25.8 251.58-21.6 251.78-21.6Q252.73-23.8 254.45-25.1 256.18-26.4 259.08-26.4L259.08-26.4Q263.08-26.4 265.4-23.83 267.73-21.25 267.73-16.55L267.73-16.55 267.73 0 263.73 0 263.73-15.85Q263.73-22.8 257.88-22.8L257.88-22.8Q256.68-22.8 255.55-22.5 254.43-22.2 253.53-21.6 252.63-21 252.1-20.08 251.58-19.15 251.58-17.9L251.58-17.9 251.58 0ZM291.87 0L291.87-4.2 291.67-4.2Q291.27-3.3 290.7-2.43 290.12-1.55 289.27-0.88 288.42-0.2 287.22 0.2 286.02 0.6 284.42 0.6L284.42 0.6Q280.42 0.6 278.07-1.98 275.72-4.55 275.72-9.25L275.72-9.25 275.72-25.8 279.72-25.8 279.72-9.95Q279.72-3 285.62-3L285.62-3Q286.82-3 287.95-3.3 289.07-3.6 289.95-4.2 290.82-4.8 291.35-5.73 291.87-6.65 291.87-7.95L291.87-7.95 291.87-25.8 295.87-25.8 295.87 0 291.87 0ZM304.37 0L304.37-37 308.37-37 308.37-13.55 308.57-13.55 312.52-17.95 319.82-25.8 324.67-25.8 315.12-15.6 325.62 0 320.77 0 312.22-13.15 308.37-9.2 308.37 0 304.37 0ZM332.72-31.85L332.72-31.85Q331.42-31.85 330.84-32.48 330.27-33.1 330.27-34.1L330.27-34.1 330.27-34.75Q330.27-35.75 330.84-36.38 331.42-37 332.72-37L332.72-37Q334.02-37 334.59-36.38 335.17-35.75 335.17-34.75L335.17-34.75 335.17-34.1Q335.17-33.1 334.59-32.48 334.02-31.85 332.72-31.85ZM330.72 0L330.72-25.8 334.72-25.8 334.72 0 330.72 0Z" opacity="1" transform="matrix(1,0,0,1,0,0)" fill="#ffffff" class="undefined-text-0" data-fill-palette-color="primary" id="text-0"></path></svg></g></svg></g></svg></g></svg></g></svg></g></svg></g></svg></g></svg></g></svg><rect width="395.52" height="247.2" fill="none" stroke="none" visibility="hidden"></rect></g></svg></g></svg>